<?xml version="1.0" standalone="no"?>
<!DOCTYPE svg PUBLIC "-//W3C//DTD SVG 20010904//EN"
 "http://www.w3.org/TR/2001/REC-SVG-20010904/DTD/svg10.dtd">
<svg version="1.0" xmlns="http://www.w3.org/2000/svg"
 width="120.000000pt" height="120.000000pt" viewBox="0 0 120.000000 120.000000"
 preserveAspectRatio="xMidYMid meet">

<g transform="translate(0.000000,120.000000) scale(0.100000,-0.100000)"
fill="#000000" stroke="none">
<path d="M481 1064 c-253 -68 -410 -331 -346 -577 35 -136 127 -252 248 -312
93 -47 97 -46 97 15 l0 50 -44 0 c-52 0 -90 26 -106 74 -6 18 -20 42 -30 51
-24 22 -26 35 -4 35 8 0 34 -18 56 -40 36 -35 47 -40 88 -40 43 0 48 3 74 41
14 23 25 42 24 43 -2 1 -25 8 -53 14 -139 36 -202 159 -140 276 20 37 23 55
19 90 -9 61 1 96 27 96 22 0 75 -24 100 -46 11 -10 24 -11 50 -4 18 6 54 10
79 10 25 0 61 -4 79 -10 26 -7 39 -6 50 4 25 22 78 46 100 46 26 0 36 -35 27
-96 -4 -35 -1 -53 19 -90 62 -117 -1 -240 -140 -276 -63 -15 -61 -14 -42 -36
30 -33 47 -90 47 -162 0 -38 3 -70 6 -70 25 0 133 73 177 119 182 190 182 472
0 662 -118 124 -300 177 -462 133z"/>
</g>
</svg>
