<?xml version="1.0" standalone="no"?>
<!DOCTYPE svg PUBLIC "-//W3C//DTD SVG 20010904//EN"
 "http://www.w3.org/TR/2001/REC-SVG-20010904/DTD/svg10.dtd">
<svg version="1.0" xmlns="http://www.w3.org/2000/svg"
 width="120.000000pt" height="120.000000pt" viewBox="0 0 120.000000 120.000000"
 preserveAspectRatio="xMidYMid meet">

<g transform="translate(0.000000,120.000000) scale(0.100000,-0.100000)"
fill="#000000" stroke="none">
<path d="M134 1066 l-34 -34 0 -432 0 -432 34 -34 34 -34 432 0 432 0 34 34
34 34 0 432 0 432 -34 34 -34 34 -432 0 -432 0 -34 -34z m256 -176 c26 -26 25
-46 -5 -75 -31 -32 -69 -32 -101 0 -27 27 -26 59 4 83 24 19 79 15 102 -8z
m18 -397 l-3 -228 -70 0 -70 0 -3 228 -2 227 75 0 75 0 -2 -227z m212 202 c0
-14 1 -25 3 -25 1 0 24 11 51 25 117 59 229 7 256 -121 6 -27 9 -108 8 -179
l-3 -130 -70 0 -70 0 -5 148 c-5 141 -6 150 -29 168 -32 26 -74 24 -108 -5
-28 -24 -28 -24 -31 -170 l-4 -146 -69 0 -69 0 0 230 0 230 70 0 c68 0 70 -1
70 -25z"/>
</g>
</svg>
